<svg width="40" height="40" viewBox="0 0 40 40" fill="none" xmlns="http://www.w3.org/2000/svg">
<rect width="40" height="40" fill="white"/>
<circle cx="20.5" cy="20.5" r="17.5" fill="black"/>
<path d="M15.5801 27V14.2031H13.5146V19.5557H9.20801V14.2031H7.15137V27H9.20801V21.2959H13.5146V27H15.5801ZM18.6562 17.4902V19.2393H21.583V25.2598H18.6562V27H26.4961V25.2598H23.7012V17.4902H18.6562ZM21.3896 15.0293C21.3896 15.252 21.4424 15.4482 21.5479 15.6182C21.6592 15.7822 21.8203 15.8965 22.0312 15.9609C22.2363 16.0254 22.4238 16.04 22.5938 16.0049C22.7637 15.9697 22.9102 15.8965 23.0332 15.7852C23.2793 15.7207 23.4668 15.5947 23.5957 15.4072C23.7246 15.2139 23.7686 14.9883 23.7275 14.7305C23.6982 14.4785 23.584 14.2734 23.3848 14.1152C23.1914 13.9512 22.9365 13.8691 22.6201 13.8691C22.4326 13.8691 22.2627 13.8984 22.1104 13.957C21.9639 14.0098 21.8379 14.0859 21.7324 14.1855C21.6211 14.291 21.5361 14.417 21.4775 14.5635C21.4189 14.7041 21.3896 14.8594 21.3896 15.0293ZM33.9492 22.667L34.0283 14.2031H31.8838L31.9717 22.667H33.9492ZM31.7168 25.9453C31.7168 26.2793 31.8252 26.5576 32.042 26.7803C32.2588 27.0029 32.5664 27.1143 32.9648 27.1143C33.3574 27.1143 33.665 27.0029 33.8877 26.7803C34.1104 26.5576 34.2217 26.2793 34.2217 25.9453C34.2217 25.6055 34.1104 25.3213 33.8877 25.0928C33.665 24.8643 33.3574 24.75 32.9648 24.75C32.5664 24.75 32.2588 24.8643 32.042 25.0928C31.8252 25.3213 31.7168 25.6055 31.7168 25.9453Z" fill="white"/>
</svg>
