<svg width="40" height="40" viewBox="0 0 40 40" fill="none" xmlns="http://www.w3.org/2000/svg">
<g clip-path="url(#clip0_18_3)">
<rect width="40" height="40" fill="white"/>
<circle cx="20" cy="20" r="20" fill="black"/>
<path d="M13.709 28V12.3594H11.1846V18.9014H5.9209V12.3594H3.40723V28H5.9209V21.0283H11.1846V28H13.709ZM17.4688 16.377V18.5146H21.0459V25.873H17.4688V28H27.0508V25.873H23.6348V16.377H17.4688ZM20.8096 13.3691C20.8096 13.6413 20.874 13.8812 21.0029 14.0889C21.139 14.2894 21.3359 14.429 21.5938 14.5078C21.8444 14.5866 22.0736 14.6045 22.2812 14.5615C22.4889 14.5186 22.668 14.429 22.8184 14.293C23.1191 14.2142 23.3483 14.0602 23.5059 13.8311C23.6634 13.5947 23.7171 13.319 23.667 13.0039C23.6312 12.696 23.4915 12.4453 23.248 12.252C23.0117 12.0514 22.7002 11.9512 22.3135 11.9512C22.0843 11.9512 21.8766 11.987 21.6904 12.0586C21.5114 12.123 21.3574 12.2161 21.2285 12.3379C21.0924 12.4668 20.9886 12.6208 20.917 12.7998C20.8454 12.9717 20.8096 13.1615 20.8096 13.3691ZM36.1602 22.7041L36.2568 12.3594H33.6357L33.7432 22.7041H36.1602ZM33.4316 26.7109C33.4316 27.1191 33.5641 27.4593 33.8291 27.7314C34.0941 28.0036 34.4701 28.1396 34.957 28.1396C35.4368 28.1396 35.8128 28.0036 36.085 27.7314C36.3571 27.4593 36.4932 27.1191 36.4932 26.7109C36.4932 26.2956 36.3571 25.9482 36.085 25.6689C35.8128 25.3896 35.4368 25.25 34.957 25.25C34.4701 25.25 34.0941 25.3896 33.8291 25.6689C33.5641 25.9482 33.4316 26.2956 33.4316 26.7109Z" fill="white"/>
</g>
<defs>
<clipPath id="clip0_18_3">
<rect width="40" height="40" fill="white"/>
</clipPath>
</defs>
</svg>
